/* XPM */
static const char *mono1der[] = {
/* columns rows colors chars-per-pixel */
"64 64 15 1 ",
"  c #0D0A0A",
". c #231F22",
"X c #5A2D1B",
"o c #44444C",
"O c #945325",
"+ c #AF502F",
"@ c #984D30",
"# c #DCAE6F",
"$ c #B68955",
"% c #37679C",
"& c #477BB9",
"* c #5098e5ff",
"= c #5098e5ff",
"= c #5098e5ff",
"; c #AAA6A9",
/* pixels */
"****************************************************************",
"****************************************************************",
"**********************************=*****************************",
"*********************************==*****************************",
"************************==******========************************",
"************************=*******========************************",
"************************==***-%%%%%%-===************************",
"************************=----o      %---=***********************",
"****************=========%.            .-==*********************",
"****************===*===o.. ..X@@@@@@@@@X..&*********************",
"******************=*=-%....XX@++++++++++X .&********************",
"*****************===-%.XXXXX@+++++++@XXO+X .&=******************",
"********************% XXXXX++++++++@    @+X .-******************",
"*******************=% XXXXX+++++++@      @+X.=******************",
"*******************%.XXXXXX+++++++@      O+X.=******************",
"*******************% XXXXXX++++++@.      O+X.=******************",
"************====*==% XXXXXX@+++++X ......@+X.-******************",
"************====*==% XXXX.XX@OOO@X ...X.XX@X.-******************",
"**********========-o XXX.       ....   .  . .-******************",
"**********=======-.      .OOOOO$####$XX$$$$O.-******************",
"************===&.. .XXXXXOOOO+#######$$####@.*******************",
"************-%%oX .O$$$XOOOOO+#############@.*******************",
"***********-%. X@ X$###.XOOOO$#####$#######o.=******************",
"**********-%.@++@ X$###.XOOOO$##;;;.$###;;o .*******************",
"**********%.@++@X X$###.XOOOO$##;;. $###;o  .-******************",
"**********o XXXXX X$###.XOOOO+##;;  $###;o  .-******************",
"********==%o..... .O$$$XXOOOO$###;OO##$oo@@X.-******************",
"********===&.......XXXXOOOOOO+########$X.$#$o&-*****************",
"********==-=--=-===%   XOOOOOO+#############$.-*****************",
"********====***=***-% XXOOOOOO+##$.#########$ -*****************",
"*******=%%%%%%-=****-%.XOOOOOO+##$@oXXoooo$#$ &*****************",
"******=&o..  .%-*****-oXXOOOOO+$###XXXXXXX$#@o-*****************",
"****==-.XOOOOO.o-==**=-..XXOOOOO$##########@.------===-----====*",
"****=%.XOOOOOOOXo-=***=-o   XOOOO$########Oo-&.............%==**",
"****=% OOX..XOOX.-==**=%. XXXOOOOO@@@@@OXXo&&o.ooooooooooo.o====",
"*****% OOX . OOX.%-=**-. XXOOOOOOOOOOOOX .%*% o;;;;;;;;;;;oo====",
"*****% OOX.&.XOOO &=**&.XXOOOOOOO++++++O %=-%.o;;;;;;;;;;;oo====",
"*****% OOOX.&.XOO &**&.XXOOOOOOOO######O %=%.o;;;;;;;;;;;;oo====",
"*****-%....&-.XOO &**& XOOOOXXOO#######O %=%.o;;;;;;;;;;;o%-====",
"******-%oo%*-.XOO &*-o.XOOOO..OO#######O o%oo&;;;;;;;;;;;.%*====",
"************-.XOO &*% XXOOOO..O+#######O   .%;;;;;;;;;;;;.%*****",
"***********=-.XOO.%=% XXOOOO..O+#######O X..%;;;;;;;;;;;;.%*****",
"***********=-.XOOO.%% XXOOOO..O+######$O X.o;;;;;;;;;;;;.%-*****",
"************=&oXOOXo. XXOOOOX.OO###X....   o;;;;;;;;;;;; &******",
"**********==**%oXOOX. XXOOOOXXXO##$  ......o;;;;;;;;;;%oo-******",
"***********=***&.XOOX OOO++++X O$##X..o.oooooooooooooooo-**=****",
"**********==***=&.XOX.######$X OO###.                 o-***=****",
"**************===&.. .######$X OO+++OXXX %&&&&&&&&&&&&-***==****",
"*****************=%%..$#$@#@XXXOOOOOOOX.%-=*********************",
"********************&oX$X.@. XOOXXXXXXX.-*=*********************",
"********************=&.     XOOO.   XXX.-***====****************",
"***********=********=-&..XXOOOX.%. XXOX.-***====****************",
"***********=====****==-..XXOOOX.-..XXOX o-**======**************",
"************==&%%%-*==-.XO$$$$@o% .OO$$ooo-*===&%%%-************",
"**********====%   %-&&&.X$#####$  X$$####Xo&&&&o   &************",
"*********====-%.@@.     X$##$$#$. X$$###+.     X+@.&************",
"**************-%.@@OXXXX@@++@@+@OX@+++++@OXXXXO@@.&-************",
"***************-oXXXXXXXXXXXXXXXXXXXXXXXXXXXXXXXX%-=************",
"****************-o... .... .oooo..o.oo. .... .oo%===************",
"****************====%.-&-% &=======-==%.&&-%.-======************",
"****************====%.&.%% &=*====*===%.&.%%.-======************",
"****************====%.-&-% &****==**==%.-&-%.-======************",
"****************=**=-%oooo%-**===***=*-%ooo%%-*=====************",
"****************=====-...o=***====*****-...o***=====************"
};
