/* XPM */
static const char *mono4der[] = {
/* columns rows colors chars-per-pixel */
"64 64 16 1 ",
"  c #0C0909",
". c #272021",
"X c #5E2913",
"o c #1F364F",
"O c #4B5055",
"+ c #A2321C",
"@ c #8E5022",
"# c #A37842",
"$ c #DAA25A",
"% c #356699",
"& c #6D7D91",
"* c #5098e5ff",
"= c #5098e5ff",
"- c #5098e5ff",
"; c #7E8086",
": c #BEB8B0",
/* pixels */
"================================================================",
"================================================================",
"================================================================",
"================================================================",
"================================================================",
"================================================================",
"================================================================",
"================================================================",
"================================================================",
"================================================================",
"================================================================",
"================================================================",
"================================================================",
"================================================================",
"================================================================",
"============================%ooooooooooo========================",
"=========================%%%.  XXXXXXXXX%%%=====================",
"========================*.  .XX+++++++++  .*====================",
"=======================% ....X++++++++++++X.*===================",
"======================o.....X++++++++X...++Xo%==================",
"======================o .XXX++++++++X    X++ o==================",
"======================o .XXX++++++++       +.o==================",
"======================o ..XX+++++++X  ...  +.o==================",
"=====================-. ....+++++++X .X... + o==================",
"====================*.            .          o==================",
"================*oooo   XXXXXXX@##@@@XXXXXXX o==================",
"=============-%%O  .XX.X@@@@@@@$$$$$$#@@####.o==================",
"=============%  X+ @$$$#@@@@@@$$$$$$$$#@$$$$.o==================",
"=============% X++ @$$#@XX@@@@$$$::::$$$$:::.o==================",
"=============% XXX @$$#@XX@@@@$$$::::$$$$:::.o==================",
"=============%     @$$#@XX@@@@$$$::  $$$$..:.o==================",
"=============-*****oX$$#XX@@@@$$$::  $$$$ .:.o==================",
"===================%O@@@XX@@@@$$$::@@$$$$@O:#O%=================",
"===========------===*. .XX@@@@$$$$$$$$$#X@@$$# -================",
"==========%     %====--% .X@@@@$$$$$$$$$@##$$# -================",
"=========%oXXXXX.o-====%  .@@@@$$$@@$$$$$$$$$# -================",
"=======-%.X@XXX@X.%-===*o  XXX@#$$@@#########Oo-================",
"=======% X@@XXXX@X %===--o   .@@#$$#         o-=----===-=-======",
"=======% XXX   XXX %==%...XXXXXXX@$$######@   ............%=====",
"=======% XXX .o.XX %-%..XXXXXXXXXX######@@Oo .OOOOOOOOOOO o=====",
"=======% XXX o-..X.%- .X@@@@@@@@@@@@@@XX  o=o.;;;;;;;;;;;.o=====",
"=======% XXX o-. .-=* X@@@@@@@@@@$$$$$@X %==oo&&;;;;;&&;; %=====",
"=======-%.XXX.o%%%-%o.X@@@X.XX@#$$$$$$@X %-ooO&&;;&;&&;;O *=====",
"=========..X@X.%-==o XX@@@X .XX###$$$$@X %* O;;&&;::&&;;O.-=====",
"=========o XX@X o--o XX@@@X      .#$$$@X %% O&;;;;::&&&&.o======",
"=========*O XX@XXoo  XX@@@XXXXX###X.X$X  .. O;&;;;;;&&&; %======",
"==========*o.XX@X..  XXX@@@@@@@$$$@. #@@@X  O;&&;;&&&&&O %======",
"===========-o.XXXXX. XXXXXXX@@@#$$$@ X#$$#  O&&&;&;&&&;O -======",
"============-o     .. .XXXXXXXX@#$X     .   ;&&&&&;;&&;oo=======",
"=============*%%%o     .........X@ .OOOOOO. OOOOOOOOOO.%-=======",
"=================-o..              .oooooO. .ooooooooOo*========",
"=============---====* .XXXXX@@@@@@                   .-=========",
"============-o..%===-*o XXXXXX@@@@XX ..XX. %****o  o-*-=========",
"============* .Xo%%*==%o....XX@#####@.X@##O%*==%oX %============",
"============-oX+X  O***%    .XX###### X@### %**.X+X%============",
"==============oX+++X                           X+X%=============",
"==============-O.+++XXXXXXXXXXXXXXXXXXXXXXXXXXX+.O-=============",
"===============%oXXXXXXXXXXXXXXXXXXXXXXXXXXXXXXXo%==============",
"================-o                             .-===============",
"=================--o %%%    %---------o.%%%    %================",
"===================o.%o%    -=========oo%o%    -================",
"===================%oooo  o%==========%oooo  o%=================",
"====================-ooooo%============*ooooo%==================",
"================================================================"
};
