/* XPM */
static const char *mono3iz[] = {
/* columns rows colors chars-per-pixel */
"64 64 16 1 ",
"  c #0E0B0A",
". c #261B19",
"X c #5C2D16",
"o c #1F3650",
"O c #4A4C54",
"+ c #A73620",
"@ c #8E4C1A",
"# c #A36430",
"$ c #A47743",
"% c #D49F5D",
"& c #38699F",
"* c #5098e5ff",
"= c #5098e5ff",
"- c #5098e5ff",
"; c #738098",
": c #A19FA5",
/* pixels */
"================================================================",
"==========================-&ooooooo-============================",
"========================**&        &***-========================",
"=======================-.              *========================",
"=====================-oo@@@@@@@@@@+X...ooo======================",
"====================-OXX++++++++++++XXX...o-====================",
"===================-&.++++++++++++++@XXXXX &-===================",
"===================o.+++. .+++++++++@XXXXXX.o===================",
"===================o.+@.   X+++++++++XXXXXX o===================",
"===================o.+X     @++++++++XXXXXX o===================",
"===================o.+X     +++++++++XXXXXX o===================",
"===================o.+X .X. +++++++++XXXXXX o===================",
"===================o X. ..  .XXXXXXX.   .XX o===================",
"===================o .............      ... o*&-================",
"===================o.%%%@$%%%%%%$@@@@@@@X      O--==============",
"===================o.%%%%%%%%%%%%%@@@@@XX@@@@@    &=============",
"===================oX%%%%%%%%%%%%%@@@@@.X##### .XXooo-==========",
"===================o.%%%%%%$%%%%%%@@@@@.X$$$$# X++X  -==========",
"===================o ;::%%$.:::%%%@@@@@.X%%%%# X+++X.-==========",
"===================o  ;:%%$ .::%%%@@@@@.X%%%%#  ...o*===========",
"==================&O. ;:%%$  ;:%%%@@@@@.X%%%#Xooooo&============",
"=================-.#$ O:%%$..;:%%%@@@@@.X%%@Xo-=================",
"=================-.#%$..X%%%%%%%%%@@@@@@@@@.o-==================",
"=================-.#%%#@$%%%%@$%%#@@@@@@X..O&===================",
"=================-.#%$$$$$$$$X$%$@@@@@@X. o*======&&&&&&-=======",
"==================o#$       .%%%$@@@@@XX. *======-o     &=======",
"==================-OX$$$$$$$$%%$#@@@X     .oo===-oX@@@@X.&======",
"===================*O@%%%%%%%%$#@@@@X.XX..X..&-*OX@@XXX@Xo&-====",
"=========-----------&.$%%%%%%$@@@XXX@@@@@@@@X.&o @@X...@@X.*====",
"========o...........o-o   .@@@XX@@@@@@@@@@@@@@.  X.o--& @@X &===",
"========o.OOOOOOOOOOO&&&&o X@@@@@@@@@@@@@@@@@@XXX.o*==& @@@ &===",
"========o.;;;;;;;;;:O -==o X@#####@@@@@XXXX@@@@@@.O**=& @@@ &===",
"========o.;;;;;;::::O -==o X$%%%%%@@@@@.   X@@@@@@. .-& @@@ &===",
"========*&O;;;;:::::;oo&=o X$%%%%%%#@@@XXX   .@#%%$@ ooX@@X &===",
"=========&.;:;::::;;;o &=o X$%%%%%%#@@@@XX.   #%%%%$ .X@@XXo-===",
"=========&.;:;:::;;;;O &=o X$%%%%%%#@@@@@XX.  %%%%%$ X@@X.o-====",
"=========&.;::;;;;;;;;Ooo.XX@$%%%%%#@@@@@@XX. %$X%%%#@XX o-=====",
"=========-&O;:::;;;;;;O. XXXX@%%%%%X.X@@@@XXX %@.%%%#X..o*======",
"==========- O;;;;;;;;;O..XXX X$%%%$. .@@@@XXX $Oo$%$#o.o-=======",
"==========- oOOOOOOOOOO.      .%%%.X@@@@@@XXX  &*.   &==========",
"===========&o         . o&&&&o XXXX@@@@@@@XXX  &=&&&&-==========",
"============&ooooooooooo&====*o  .@@@@@@@@XX...o&&-=============",
"==============================-oX@@@@@@@@XX..XX.  &=============",
"=============================*oX@@@@@@...  XXXXXX .ooooo-=======",
"=============================& X@@@@@X oo .XXXXXX...XX. -=======",
"=============================* X@@@@@X &&.XXXXXXXXX@##@ -=======",
"=============================* X@@@@@X &=*.XXXXXXXX@##@ *=======",
"==============================&oX@@@@X &==*o..XXXXX@###@o&======",
"================-&&*=======*&&&.X####@ &===&oo.XXXXX@###.&======",
"================*  o-=====-. .  @%%%%# &======o     .@##.o-=====",
"================* XXo-====-.@%%%%%%%%# &======-------oX##Xo-====",
"================-&XXXooooooOX$%@$%%%%# &=============&OXX.o-====",
"==================o.X.    .$XX%.X%%%%# &==============&oo.o=====",
"===================&.@++++++++#X@%%%%# &=================-======",
"===================-&.......XX++++++++X.oooo====oooo============",
"====================-&  ooo.    ..XXX++XXXX.&&&OXX o============",
"======================oo--*-oo&&oo.    .XX+X    X+Xo============",
"======================oo-o.*oo====--&&o    .++++. &=============",
"======================*&o  o&-========o o*&O....&&-=============",
"=======================*oooo*=========o o**& ooo-===============",
"======================================o ooo& &==================",
"======================================-o   o--==================",
"=======================================&o&&&====================",
"================================================================"
};
