/* XPM */
static const char *mono3der[] = {
/* columns rows colors chars-per-pixel */
"64 64 16 1 ",
"  c #0E0B0A",
". c #261B19",
"X c #5C2D16",
"o c #1F3650",
"O c #4A4C54",
"+ c #A73620",
"@ c #8E4C1A",
"# c #A36430",
"$ c #A47743",
"% c #D49F5D",
"& c #38699F",
"* c #5098e5ff",
"= c #5098e5ff",
"- c #5098e5ff",
"; c #738098",
": c #A19FA5",
/* pixels */
"================================================================",
"============================-&ooooOO&-==========================",
"========================-&&&&        &**-=======================",
"========================&               -=======================",
"=====================-ooo...X@@@@@@@@@@@oo-=====================",
"====================-O...XXX@+++++++++++XXO-====================",
"===================-& XXXXX+++++++++++++++X&-===================",
"===================o.XXXXXX++++++++++.  +++.o===================",
"===================o XXXXXX@++++++++X   .@+.o===================",
"===================o XXXXXX@++++++++     X+.o===================",
"===================o XXXXXX+++++++++     X+.o===================",
"===================o XXXXXX+++++++++ .XX X+.o===================",
"===================o XX.....XXXXXXX.  .. .X o===================",
"================-&&o ...       ........ ... o===================",
"=============---&      X@@@@@@@$%%%%%%$@%%%.o===================",
"=============&    @@@@@XX@@@@@%%%%%%%%%%%%%.o===================",
"==========-OooXX. #####X.@@@@@%%%%%%%%%%%%%.o===================",
"==========-  X++X #$$$$X.@@@@@%%%%%%$%%%%%%.o===================",
"==========-.X+++X #%%%%X.@@@@@%%%:::.$%%::; o===================",
"==========-*o...  #%%%%X.@@@@@%%%::. $%%:;  o===================",
"============&oooooX#%%%X @@@@@%%%:;  $%%:; XO&==================",
"=================-oX@%%X.@@@@@%%%:; .$%%:;.%$.-=================",
"==================-o.@@@@@@@@@%%%%%%%%%X..$%#.-=================",
"===================&O..X@@@@@@#%%$O%%%%$#$%%#.-=================",
"=======-&&&&&&======*o .X@@@@@@$%$X$$$$$$$$%#.-=================",
"======-&.    o--===--* .XX@@@@@$%%%.       $#o-=================",
"======&.@@@@@X.-===o..     X@@@#$%%$$$$$$$$XO-==================",
"====-&oX@XXX@XXo*-&...XXXX.X@@@@#$%%%%%%%%@O&===================",
"===-*.X@@...X@@ o&.X@@@@@@@@XXX@@@$%%%%%%$.&------------========",
"===&.X@@ &--o.X  .@@@@@@@@@@@@@@XXX@X.   o-o...........o========",
"===& @@@ &==&o.XXX@@@@@@@@@@@@@@@@@@X o&&&&OOOOOOOOOOO.o========",
"===& @@@ &=*&O.@@@@@@XXXX@@@@@#####@X o==- O:;;;;;;;;;.o========",
"===& @@@ &-. .@@@@@@X   .@@@@#%%%%%$X O==- O;;;;:::::;.o========",
"===& X@@Xoo @$%%#@.   XXX@@@#%%%%%%$X O=&oo;;;;;::;:;O&*========",
"===-o.X@@X. $%%%%#   .XX@@@@#%%%%%%$X O=& O;:;;:::;;;.&=========",
"====-o.X@@X $%%%%%  .XX@@@@@#%%%%%%$X O=&.O;:;;:::;;;.&=========",
"=====-o XX@#%%%X$% .XX@@@@@@#%%%%%$@XX.ooO;;::;;;;;;;.&=========",
"======*O..X#%%%.@% XXX@@@@X.X%%%%%@XXXX .O;:::;;;;;;O&-=========",
"=======-o.o#$%$oO$ XXX@@@@  .$%%%$X XXX..O;;;;;;;;;O -==========",
"========--&   .*&  XXX@@@@@@X.%%%.      .OOOOOOOOOOo.-==========",
"==========-&&&&-&  XXX@@@@@@@XXXX o&&&&o .  .......o&-==========",
"=============-&&O..XXX@@@@@@@@.  o&====&ooooooooooo&============",
"=========----&  XXX..XX@@@@@@@@X.-==============================",
"=======-oooo.  XXXXXX    .@@@@@@Xo*=============================",
"=======- .XX...XXXXXX. oo X@@@@@X &=============================",
"=======- @$#@XXXXXXXXX.&& X@@@@@X *=============================",
"=======- @$#@XXXXXXXX.-=& X@@@@@X *=============================",
"======&o@###@XXXXX  o&-=& X@@@@Xo&-=============================",
"======O.###@XXXXX.oo&===& X####X.&&&&-======*&&-================",
"=====-o.##@.     o======& #%%%%@  . .-=====-o  &================",
"====-oX##Xo-------======& #%%%%%%%%#.-====-oXX &================",
"====-..XXO&=============& #%%%%$@%$XOooooooXXX&-================",
"====-o...&==============& #%%%%X.%X.$. .  .@.o==================",
"=====----===============& #%%%%@X#++++++++@.&===================",
"===========-oooo-===oooo.X++++++++XXX......&-===================",
"===========-. XXO&&&XXXXX++XXX..    .ooo .&-====================",
"===========-oX+X    X@XX..   .oo&&oo-*--oo======================",
"============-& .++++.    .&&--====oo*.o-oo======================",
"=============-&&....O&*o o========*&o  o&*======================",
"===============-oo. &**o o=========*oooo*=======================",
"==================& &ooo o======================================",
"==================--o   o-======================================",
"====================&OOO&=======================================",
"================================================================"
};
