/* XPM */
static const char *mono3iz[] = {
/* columns rows colors chars-per-pixel */
"64 64 16 1 ",
"  c #0A0808",
". c #271C1B",
"X c #5E2B14",
"o c #203752",
"O c #65626A",
"+ c #404A59",
"@ c #9E311D",
"# c #82421B",
"$ c #975F30",
"% c #A2794B",
"& c #D9A05B",
"* c #5098e5ff",
"= c #5098e5ff",
"- c #5098e5ff",
"; c #498BD2",
": c #D3C7B8",
/* pixels */
"----------------------------------------------------------------",
"----------------------------------------------------------------",
"----------------------------------------------------------------",
"--------------------------;ooooooooo=---------------------------",
"-----------------------;***         o**=------------------------",
"-----------------------*               .;-----------------------",
"---------------------;o.@####XXXXXXXX....*----------------------",
"--------------------=*.X@@@@@@@@@@@@XXX. o*---------------------",
"--------------------o @@@@@@@@@@@@@@@@X... =--------------------",
"--------------------o @X...X@@@@@@@@@@#X.. =--------------------",
"--------------------o XX    X@@@@@@@@@@@.. =--------------------",
"--------------------o        X@@@@@@@@@@.. =--------------------",
"--------------------o   .... .@@@@@@@@@@X. =--------------------",
"--------------------o   .... .##X#XXXXXX.  *====----------------",
"--------------------o                           =---------------",
"--------------------o #$$XXXXX$$$$#XXXXXXXX  XXXooo*------------",
"--------------------o.&&&$##$%&&&&&$######$X.#@@.  o------------",
"--------------------o.&&&&%#&&&&&&&&$####%&&%  X.. o------------",
"--------------------o.:::&&%&&:::&&&$####%&&%    .+=------------",
"--------------------o.:::&&&&&:::&&&$####%&&%  ..o;-------------",
"--------------------o  O:&&&&% ::&&&$####%&&& o;;;--------------",
"------------------;++# O:&&&&% ::&&&$####$%$++=--;*+++*;--------",
"------------------= $&.O:&&&&%.::&&&$####XX.o---;=.   .=;-------",
"------------------= $&&$...&&&&&&&%######X *;---o.%&&&%.o-------",
"------------------= $&&%##$&&&$&&&%####XXoo;;***.X%&&&&$+*;-----",
"------------------= $&&&&&&&&$ %&&%####X o--=   X#X$&&&&% =-----",
"-------------------;+........X%&&$####.   ...XXXXX##$%&&% =-----",
"-------=************+o .XXXXX$&&%#XXXX.......XXXXXXX#$%%Oo=-----",
"-------o            *= X&&&&&&&$##XXXXX#######XXX. .##X o-------",
"-------o +OOOOO+++OO+.  ...X#$$#X#XXXX######XXXX .*+...*=-------",
"-------o OOOOOOOOOOOo oooo. X#$$$$$####XXXXXX....o-=o  *=;------",
"-------o OOOOOOOOOOO..;---* X$&&&&%####XX.      =----*   =------",
"-------=*o+OOO::OOOOOOo*--* X#&&&&&%$##XXX.  ***;-*oooXXXoo-----",
"--------; +OOO::OOOOOO o;;+ .#&&&&&&$####XX .;----o  XXX#..=;---",
"--------; +OOOOOOOOOOO    .XXX#%&&&&$#####X .;----o XX X##X *---",
"---------*+.OOOOOOOOOOOo ..XXX.%&&&&$######X.o*---o XXXXXXX *---",
"----------* +OOOOOOOOOO+ .XXX. $&&&&$XXX###X. o---+.XXX. XX *---",
"----------* ++++++++++++++++    .&%.   .X##X. o----=.    XX +---",
"----------=+oooooooo........ .+. ##....X###X. .**--;*o ..XXo*---",
"------------o                o-o  .#######XX.   .=;;;+ X# .;----",
"------------;;;;;;;;;;;;;;;;;;-o XX######XX  ...... ..X## .;----",
"-----------------------------;*oXX##XXXXXX.oo..XX....X#XXo*-----",
"-----------------------------* X####X...X. =; .XXXXXXXX..=------",
"-----------------------------* X##XX.      =-=o        +;-------",
"--------------------------=**o X##XX       ***o ooooooo*--------",
"-------------------------;+    X##XX  .XX.     o----------------",
"------------------------;.+%%%%$X#X   .XX....X##o*--------------",
"------------------------= X%&&&%$#X .o...XXXXX$$.+=-------------",
"-----------------*++=---=   %&&&&#X *;. XXXXXX$%%..;------------",
"----------------;.  o*--;***+XX%&&$ *-=*.     .#%$#o*-----------",
"----------------;..#.o;;;;--o.oO%%$ *--;o..... .$%$ o-----------",
"-----------------*+@@X   .=----o    *----;;;;;.  #$ o-----------",
"------------------*.@@XXXXooooo*****;---------*o .. o-----------",
"------------------;oX@@@@@.    *====;----------;o...+-----------",
"-------------------;o   X@@@@@@.    o------------;--------------",
"--------------------* o**o .X#@XXXXXXoooo;-*oo=-----------------",
"--------------------= o==* .   .X#@@@....**o  *-----------------",
"--------------------= o***.;o      .X#@@@. .X *-----------------",
"--------------------;*+..o=-=====*    .XXXX..*;-----------------",
"----------------------=oo*-------= .***.  .o*-------------------",
"---------------------------------= .=+=oo==---------------------",
"---------------------------------;*o*o*o*-----------------------",
"-----------------------------------=.  *------------------------",
"------------------------------------===;------------------------"
};
