/* XPM */
static const char *mono2der[] = {
/* columns rows colors chars-per-pixel */
"64 64 16 1 ",
"  c #0E0B0B",
". c #212023",
"X c #5B2D19",
"o c #42444B",
"O c #955422",
"+ c #A14D27",
"@ c #9E5230",
"# c #DBAB68",
"$ c #B28751",
"% c #366597",
"& c #4D78AB",
"* c #5098e5ff",
"= c #5098e5ff",
"- c #5098e5ff",
"; c #7F8082",
": c #A9A8AD",
/* pixels */
"********************************===*****************************",
"********************************====****************************",
"********************************===*****************************",
"**********************************==********===*****************",
"********************************========************************",
"********************************=---&&&&-=**********************",
"*****************************=---o      .--=********************",
"*****************************%...        ...%*******************",
"**************************=%oo...XXXXXXXXXXXX%-=****************",
"*************************-%. .XXX++++++++++++X%-****************",
"*************************- .XXXX+++++++++++O++.%-******=********",
"***********************==& .XXXX++++++++X   X++ %******=********",
"*********************===%..XXXXX+++++++X     X+ %*======********",
"********************====% XXXXXX+++++++X      + %*======********",
"********************==**% XXXXXX+++++++X      + %====*==********",
"********************=***% XXXX.X+++++++X XXX. X %====*==********",
"********************==-=% XXX.                  %***************",
"********************=-o..    .XXXXXO$$$$$$OO$$$.%***************",
"*******************%oo .XXXXXXOOOO@#######$####.%***************",
"****************-%%o  .O@@@XOOOOOO$############.%***************",
"***************-%. XX O$###.XOOOOO$#####$#####$.%===************",
"***************%.+++X O$###.XOOOO@$##::;X##:::. %===************",
"***************% XXXX O$###.XOOO@@$##:;..##::o  %===************",
"***************&o...  X$###.XOOOOO$##:; .##::   %===************",
"****************-o.....o$$$XXOOOOO$##:;XO#$:; X o&==************",
"*****************==*===o.OOOOOOOOO$######$....#X o==************",
"**********==***********-%  XOOOOOOO$#######$####X.==************",
"**********==***********=-% XXOOOOOO@##O$########o.==************",
"********===*==%o%%-*=**==-%.XXOOOOO@##$OOOOOOOO#Oo=*************",
"********===-&&o ..%-=*===-&..XXOOOO@###@......X$o%=*************",
"********===-. XOOO.%-**--&     XXOOOO#########$.%***************",
"********==&.XOOOOOOXo==%..XOOOOOXXXXXO$######$.%-***************",
"**********% OOX..OOXo-ooXXOOOOOOOOOOXXO@OXXXXX.ooooooooooo%=****",
"*********&oXOX .oXOX.%.XOOOOOOOOOOOOOOOOX oooo..ooooooooo..-****",
"*********o.OO .%% XX .OOOOOOXXOOOO@@@@@@X &**- o;::::::::o.-**==",
"*********o.OO %%. X..OOOOOO.  .OOO$####$X &**& o;::::::::o.-**==",
"*********o.OO %-&&.XOOOOOO XXXOOO$#####$X -*&.o;:::::::::o.-==**",
"*********-%.OXo%*-.X#$OOX.XXOOOOO######$X -*% o;::::::::;o&===**",
"**********% OOXo%%o$##$@X XOOOOOO######$X %%o.;;::::::::o%**==**",
"**********&.XOOX  $####@X XOOOOOO######$X   .o;:::::::::o%**==**",
"**********=-.XOOX $####X XXOOOOOO######@XXX..o:::::::::;o%******",
"***********=&. XX $#$.#X XOOOOOOO#####oXXXX..;::::::::;.%-******",
"********===*-%%o. XOX oXXXOOOOOOO$###Oooooooo;;;;;;;;;;.%*******",
"********==*****&...... .XXOOOOOOOO@$@ .oooooooooooooooo.%*******",
"*************--------&  .XOOOOOOOO.   .................&*===****",
"************-. ..      .X XOOOOOOOOX &-----------------=*===****",
"************-.XOOXXXXXXXXX.XOOOOOOOOXo&===========********==****",
"***********-% @$$XXXXXXXXX..XXXOOOOOO %=========**********==****",
"**********-%.X$$$XXXXXXXXXX... OOOOOO %*===*********************",
"**********%.$####XXXXXXXXX.&*% XOOOOO.%*====********************",
"**********%.#####.       .&-*% XOOOX.&-**===********************",
"*********%o$##OXo%%%%%%%%&==*% XOOOX -**====********************",
"*********o.OOOo%%-******=====% O$$$$o%-*========****************",
"*********%....&*==-&&&=*=====%.$#####X%-====-&&&-***************",
"*********=----=*==o  .&------%.$###$O$Xo----%   %***************",
"****************=*o XX..... . .$###@ $X .....++ %***************",
"*****************=&oX+XXXXXXXXX+@@@+X@XXXXXXX+X%-***************",
"******************=&oXXXXXXXXXXXXXXXXXXXXXXXXXo-****************",
"********************-..  ...  ....... .... ..o-*=***************",
"*******************==--o.-&-oo-------.%---.%===*===*************",
"***********************o.-.&%%====**-.%%.-.%********************",
"***********************&%o o%&====**-%%. o%-**==****************",
"************************&...%**===***=%...-**===****************",
"************************=-===*====****=---=**===****************"
};
