/* XPM */
static const char *mono1iz[] = {
/* columns rows colors chars-per-pixel */
"64 64 15 1 ",
"  c #0D0A0A",
". c #231F22",
"X c #5A2D1B",
"o c #44444C",
"O c #945325",
"+ c #AF502F",
"@ c #984D30",
"# c #DCAE6F",
"$ c #B68955",
"% c #37679C",
"& c #477BB9",
"* c #5098e5ff",
"= c #5098e5ff",
"- c #5098e5ff",
"; c #AAA6A9",
/* pixels */
"****************************************************************",
"****************************************************************",
"**********************************==****************************",
"*********************************=*=****************************",
"************************=*******========************************",
"************************=*******========************************",
"***************************-%%%%%%-=*===************************",
"***********************=---%      o---==************************",
"*****************=*====-.            .%==****===****************",
"********************=%..X@@@@@@@@@XX. ..%=***===****************",
"******************==%. X++++++++++@XX....%=***==****************",
"******************=&. X+@XX@+++++++@XXXXX.%-**==****************",
"****************=*=. X+O    @+++++++@XXXXX %=**=****************",
"******************=.X+@      @++++++@XXXXX %==*=****************",
"******************=.X+O      @++++++@XXXXXX.%===****************",
"******************=.X+X      .@+++++@XXXXXX %===****************",
"******************=.X+@...... X+++++@XXXXXX %=********=*********",
"******************=.X@X...X.. XO@@O@XX.XXXX %=*********=********",
"******************=. ...   ..   .       XXX %-=*******==********",
"******************=.@###$XX###$$$OOOOO.      .===***************",
"******************=.@####$$#######+OOOOXXXXX. ..&***************",
"******************=.@#############$OOOOOX$$$O. Xo%%=************",
"*****************==.o#######$#####+OOOOX.###$X @X .%=***********",
"******************=. o;;###$.;;;##+OOOOX.###$X @++@.%=**********",
"******************=.  o;###$ .;;##$OOOOX.###$X X@++@.%=*********",
"******************=.  o;###$  ;;##$OOOOX.###$X XXXXX %==********",
"*******************.X@@o@$#$OO;###$OOOOXX$$$O. .....o%=*********",
"*****************=&o$#$.X$########+OOOOOOXXX........&===********",
"*****************-.$#############+OOOOOOO   %===-=====**********",
"*****************- $#########X$##+OOOOOOOX %-===========********",
"*****************& $#$XXooooo@$##+OOOOOOX.%-=====&%%%%%%=*******",
"*****************-o@#@XXXXXXX###$+OOOOOXXo-*====-%.....o&=******",
"****---=========---.O##########$OOOOOXX..==**===o.OOOOOX.-=*****",
"****%.............&-o@########$OOOOX   o-==*===oXOOOOOOOO.%*****",
"****o.ooooooooooo.o%&oXXO@@@@@OOOOOXXX .%=**==-.XOOX.XXOO %*****",
"****oo;;;;;;;;;;;o %*%. XOOOOOOOOOOOOOX .=**=-%.XOO . XOO %*****",
"****oo;;;;;;;;;;;o %-=% O++++++OOOOOOOOX.&===% OOOX.%.XOO %===**",
"****oo;;;;;;;;;;;;o.%=% O$#####OOOOOOOOXX.&==% OOX.&.XOOO.%===**",
"****-%o;;;;;;;;;;;o.%*% O#######OOXXOOOOX &**% OOX.-&....%-*=***",
"*****%.;;;;;;;;;;;&oo%o O#######OO..OOOOX.o-*% OOX.==%oo%-**=***",
"*=**=%.;;;;;;;;;;;;%.   O#######OO.XOOOOOX %=% OOX.-************",
"*=*==%.;;;;;;;;;;;;%..X O#######OO.XOOOOOX %=%.OOX.-************",
"**====%.;;;;;;;;;;;;o.X O$######OO.XOOOOOX %%.OOOX.=************",
"**=***& ;;;;;;;;;;;;o   ....X###OO.XOOOOOX .oXOOXo%=************",
"****==-oo%;;;;;;;;;;o......  $##OXXXOOOOXX .XOOXo%**************",
"******==oooooooooooooooooo..X##$O X++++@OO XOOX.%***************",
"****=*===o                 .###OO X$######.XOX.&****************",
"****=====-&&&&&&&&&&&&% XXXO+++OO X$######. ..&=****************",
"**********************-%.XOOOOOOOXXX@#@$#$..%%=====*************",
"***********************-.XOXXXXXOOX .$.X$Xo&========************",
"***********=********=**-.XOX    OOOX     .&*========************",
"***********=********=**-.XOXX .%.XOOXXX..&=*========************",
"************====****==-o XOXX..&.XOOOOOX.==*==******************",
"*********=**-%%%&***=&ooX@$OO. %o$$$$$@X.====-%%%&**************",
"********====%   o&&&-oX####$$X  $#####$X.&&&&%   %**************",
"********====% @+X     .+###$$X  $#+$##$X     .@@.%**************",
"************=&.@@XXXXX@@+++@@@XX++@@++@@XXXXX@@.%-==************",
"*************=%XXXXXXXXXXXXXXXXXXXXXXXXXXXXXXXXo-===************",
"**************=%oo. .o.. .oooooooooo. .o.. ...o-====************",
"****************==-.%-&&.%=======***& %-&&.%========************",
"****************==-.%%.&.%==========& %%.&.%**====**************",
"****************==-.%-&-.%==========& %-&-.%****=*==************",
"****************===%%ooo%&==========-%oooo%-*=======************",
"****************====%...-=============o...-***======************"
};
