/* XPM */
static const char *mono2iz[] = {
/* columns rows colors chars-per-pixel */
"64 64 16 1 ",
"  c #0E0B0B",
". c #212023",
"X c #5B2D19",
"o c #42444B",
"O c #955422",
"+ c #A14D27",
"@ c #9E5230",
"# c #DBAB68",
"$ c #B28751",
"% c #366597",
"& c #4D78AB",
"* c #5098e5ff",
"= c #5098e5ff",
"- c #5098e5ff",
"; c #7F8082",
": c #A9A8AD",
/* pixels */
"********************==******************************************",
"********************=*******************************************",
"*********************=**********=*******************************",
"****************************************************************",
"************====********====********==**************************",
"************====******=--------******==*************************",
"***************=***===-o      o====***=*************************",
"***************=***%...        ...%***==************************",
"************=====-%XXXXXXXXXXXX.  oo%===************************",
"************====-%X++++++++++++XXX. .%-=************************",
"************===-%.++++++++++++++XXXX. -=************************",
"************===% ++X   X++++++++XXXX. &=************************",
"***************% +.     X+++++++XXXXX..%****=*******************",
"***************% +      X+++++++XXXXXX %****==******************",
"***************% +      X+++++++XXXXXX %****==******************",
"***************% X .XXX X+++++++X.XXXX %****==******************",
"********=======%                  .XXX %==**====****************",
"********=======%.$$$OO$$$$$$OXXXXXX    ..o-*====****************",
"********=======%.####$#######@OOOOXXXXXX. oo%===****************",
"********=======%.############$OOOOOOX@@@O. .o%%-****************",
"********==****=%.$###########$OOOOOX.###$O XX .&=***************",
"********==**===% .:::##X;::##$OOOOOX.###$O X+++.%***************",
"************===%  o::##X.::##$OOOOOX.###$O XXXX %***************",
"************===%   ::##X ;:##$OOOOOX.###$X    .o&***************",
"**************&o X ;:$#OX;:##$OOOOOXX$$$o.....o-****************",
"*************=o X#X...#######$OOOOOOOOO.o=======****************",
"*************=oX############$OOOOOOOX  %=***=*=*****************",
"*************=oO########$@##@OOOOOOXX %-******==****************",
"**************oO#oOOoOOOO$##@OOOOOOX.o-******-%oo%=*************",
"**************%o$.......@###@OOOOXX..&=*****-%.  o&&=***********",
"********==*****%.##########OOOOXX     &-=**=o.OOOX .-=**********",
"********=*=****-%.#######$OXXXXXOOOXXX..o**%.OOOOOOX.&**********",
"****=%ooooooooooo.XXXXXO@OXXOOOOOOOOOOXXXo=oXOOX.XOO %==*===****",
"****=..ooooooooo..oooo XOXOOOOOOOOOOOOOOX.%.XOXo. XOXo&***==****",
"****=.o::::::::;o -**- X@@@@@@OOOOXXOOOOOO. XX %%. OO.o*********",
"****=.o::::::::;o &=*- X$####$OOO.  .OOOOOO..X .%% OO.o*********",
"****=.o:::::::::;o.&*& X$#####$OOOXXX OOOOOOX.&&=% OO.o*********",
"****=&o;::::::::;o %*& X$######OOOOOXX.XOO$$X.=*%oXOX%-*********",
"******oo:::::::::;.o%o X$######OOOOOOX X@$##$o%%oXOO %**********",
"******oo::::::::::o.   X$######OOOOOOX X@####$  XOOX.&*=********",
"**==**%o;:::::::::o..XXX$######OOOOOOXX X####$ XOOX.-=**********",
"***=**-%o:::::::::;..XXXXo#####OOOOOOOX X#.$#$ XX .&==**********",
"**==***%.;;;;;;;;;;oooooooO###$OOOOOOOXXXX XOX .o%%===**********",
"**====*%ooooooooooooooooo. @$@OOOOOOOOXX. ......&***==**********",
"****==**-...    ..........   .OOOOOOOOX. .&--------=************",
"****==**=-----------------& XOOOOOOOOX X.     ... .-************",
"****======**==========***&oXOOOOOOOOX.XXXXXXXXXOOX.-************",
"****=======*=======*****=% OOOOOOXXX..XXXXXXXXX$$@ %=***********",
"*************************% OOOOOO ...XXXXXXXXXO$$$X.%-**********",
"*************************%.XOOOOX %*&.XXXXXXXXX#####.%**********",
"*************************=&.XOOOX %*=-.       .#####.%**********",
"**************************- XOOOX %**=&%%%%%%%%oXO##$o%=********",
"****************====*****-%o@$$$O %=****=*==**=%%oOOO.o*********",
"***************-&&&-****-%X#####$.%=****==&&&-***&....%*********",
"*************=*%   %----oX#O$###$.%------&.  o***======*********",
"***********===*%.++..... X$ @###$. .......XX o******************",
"***************-%X+XXXXXXX@X+@@@+XXXXXXXXX+Xo&******************",
"****************-oXXXXXXXXXXXXXXXXXXXXXXXXXo&*******************",
"****************=-o.. .... .......  ...  ..&*******=************",
"****************====%.---%.-====--oo---.o--=*******=************",
"****************====%.-.%%.-**=*==%o&.-oo=**===*****************",
"****************====-%o .o%=**====&oo o%&=**====****************",
"****************=====&...%=======**%...&=***====****************",
"****************========--========*======**=====****************"
};
