/* XPM */
static const char *up1[] = {
/* columns rows colors chars-per-pixel */
"64 64 2 1 ",
"  c #5098e5ff",
". c #FFC107",
/* pixels */
"                                                                ",
"                                                                ",
"                                                                ",
"                                                                ",
"                                                                ",
"                                                                ",
"                                                                ",
"                                                                ",
"                  .                                             ",
"                 . .                                            ",
"                .   .                                           ",
"               .     .                                          ",
"              .       .                                         ",
"             .         .                                        ",
"            .           .                                       ",
"           .             .                                      ",
"          .               .                                     ",
"         .                 .                                    ",
"        .                   .                                   ",
"       .                     .                                  ",
"      .                       .                                 ",
"     .                         .                                ",
"    .........          .........  ......................        ",
"    .........          .........  ........................      ",
"    .........          .........  .........................     ",
"    .........          .........  ..........................    ",
"    .........          .........  ..........................    ",
"    .........          .........  ...........................   ",
"    .........          .........  .........        ..........   ",
"    .........          .........  .........         .........   ",
"    .........          .........  .........          ........   ",
"    .........          .........  .........         .........   ",
"    .........          .........  .........        ..........   ",
"    .........          .........  ..........................    ",
"    .........          .........  ..........................    ",
"    .........          .........  ..........................    ",
"    .........          .........  .........................     ",
"     .........        .........   ........................      ",
"     ............  ............   .....................         ",
"     ..........................   .........                     ",
"      ........................    .........                     ",
"      .......................     .........                     ",
"       .....................      .........                     ",
"         ..................       .........                     ",
"           .............          .........                     ",
"                                                                ",
"                                                                ",
"                                                                ",
"                                                                ",
"                                                                ",
"                                                                ",
"                                                                ",
"                                                                ",
"                                                                ",
"                  ............................                  ",
"             ......................................             ",
"            ........................................            ",
"              ....................................              ",
"                     .......................                    ",
"                                                                ",
"                                                                ",
"                                                                ",
"                                                                ",
"                                                                "
};
