/* XPM */
static const char *exit[] = {
/* columns rows colors chars-per-pixel */
"64 62 2 1 ",
"  c purple",
". c #5098e5ff",
/* pixels */
"................................................................",
"................................................................",
"................................................................",
"................................................................",
".................................  .............................",
".................................... ...........................",
"...................................... .........................",
".......................................  .......................",
"........................................  ......................",
"........................     ............  .....................",
"...................      ...      ........  ....................",
"................    ....       ..   .......  ...................",
"..............  ...........       ..  ..... . ...... ...........",
"............. .............          .  .... . .................",
"............ .........                .. .... . ..... ..........",
"....................  ...               . ... . ................",
"..................  ..            ..     . ..  . ..... .........",
"................. ..         .      .     . .. . ..... .........",
"........ ......  .       ....  ...   .           ...............",
"..............  .      ..         ..  ..        . ..... ........",
".............  .      .             .  .        . ..... ........",
"............. .      .   ..          .  .       . ..... ........",
"............ .       . ..             .  .        ..... ........",
"...........           .                            .... ........",
"........... .        .                    .        .... ........",
".......... .  .     .                     ...    . .... ........",
".......... . ..     .                     .  .   . .... ........",
"........... .. .   .                      .  .     .... ........",
".........  ... .   .                      .  .     .... ........",
".........  ... .  .  .                    .  .    ....  ........",
"......... ....    .  .                    .  .  . ....  ........",
"........  ...     .  .                      .   . ...  .........",
"........ .... .   .  .                   .  .   . ...  .........",
"........ .... .   .  .                      .   . .. . .........",
"........ .... .   .  .                     .     .. . ..........",
"........ .... .    . .                    .      .  . ..........",
"........ .... .      .                   .         . ...........",
"........ ....         .  .              ..         . ...........",
"........ .....        .                .  .       . ............",
"........ ..... .       .  .        ...           . .............",
"........ ..... .        .  ..           ..      . ..............",
".............. .         .   ..       ..       . ...............",
"...............     .     .    .......       .  ....... ........",
"......... ..... . .. .     ..              ..  ....... .........",
"......... ...... . .. .      .           ..  ........ ..........",
"................ . ... .              ..   ......... ...........",
".......... ...... . ... ..               .......... ............",
"................. . ....  .         .............. .............",
"........... ...... . .....  .       ...........   ..............",
"...................  .......  ..         ..     ................",
"............ .......  ........    .....      ...................",
".....................  ...........      ........................",
"......................  ........................................",
".......................  .......................................",
".........................  .....................................",
"...........................  ...................................",
"..............................  ................................",
"................................................................",
"................................................................",
"................................................................",
"................................................................",
"................................................................"
};
