/* XPM */
static const char *exit_flipped[] = {
/* columns rows colors chars-per-pixel */
"64 62 2 1 ",
"  c purple",
". c #5098E5",
/* pixels */
"................................................................",
"................................................................",
"................................................................",
"................................................................",
".............................  .................................",
"........................... ....................................",
"......................... ......................................",
".......................  .......................................",
"......................  ........................................",
".....................  ............     ........................",
"....................  ........      ...      ...................",
"...................  .......   ..       ....    ................",
"........... ...... . .....  ..       ...........  ..............",
"................. . ....  .          ............. .............",
".......... ..... . .... ..                ......... ............",
"................ . ... .               ...  ....................",
"......... ..... .  .. .     ..            ..  ..................",
"......... ..... . .. .     .      .         .. .................",
"...............           .   ...  ....       .  ...... ........",
"........ ..... .        ..  ..         ..      .  ..............",
"........ ..... .        .  .             .      .  .............",
"........ ..... .       .  .          ..   .      . .............",
"........ .....        .  .             .. .       . ............",
"........ ....                            .           ...........",
"........ ....        .                    .        . ...........",
"........ .... .    ...                     .     .  . ..........",
"........ .... .   .  .                     .     .. . ..........",
"........ ....     .  .                      .   . .. ...........",
"........ ....     .  .                      .   . ...  .........",
"........  ....    .  .                    .  .  . ...  .........",
"........  .... .  .  .                    .  .    .... .........",
".........  ... .   .                      .  .     ...  ........",
".........  ... .   .  .                   .  .   . .... ........",
"......... . .. .   .                      .  .   . .... ........",
".......... . ..     .                     .  .   . .... ........",
".......... .  .      .                    . .    . .... ........",
"........... .         .                   .      . .... ........",
"........... .         ..              .  .         .... ........",
"............ .       .  .                .        ..... ........",
"............. .           ...        .  .       . ..... ........",
".............. .      ..           ..  .        . ..... ........",
"............... .       ..       ..   .         . ..............",
"........ .......  .       .......    .     .     ...............",
"......... .......  ..              ..     . .. . ..... .........",
".......... ........  ..           .      . .. . ...... .........",
"........... .........   ..              . ... . ................",
"............ ..........               .. ... . ...... ..........",
"............. ..............         .  .... . .................",
"..............   ...........       .  ..... . ...... ...........",
"................     ..         ..  .......  ...................",
"...................      .....    ........  ....... ............",
"........................      ...........  .....................",
"........................................  ......................",
".......................................  .......................",
".....................................  .........................",
"...................................  ...........................",
"................................  ..............................",
"................................................................",
"................................................................",
"................................................................",
"................................................................",
"................................................................"
};
