/* XPM */
static const char *up3[] = {
/* columns rows colors chars-per-pixel */
"64 62 2 1 ",
"  c #5098e5ff",
". c yellow",
/* pixels */
"                                                                ",
"                                                                ",
"                                                                ",
"                                                                ",
"                                                                ",
"                                                                ",
"                                                                ",
"                                                                ",
"                                                                ",
"                                                                ",
"                                                                ",
"                                                                ",
"                                                                ",
"                                                                ",
"                                                                ",
"               .....     ...         ....   ...    ....         ",
"            ........    .....        ....  ..... .........      ",
"         ...........    .....        ....  ..... ..........     ",
"         ...........    .....        ....  ..... ...........    ",
"         ...........    .....        ....  ..... .     .....    ",
"                ....    .....        ....  .....        .....   ",
"                ....    .....        ....  .....        .....   ",
"                ....    ....         ....  .....         ....   ",
"                ....    .....        ....  .....         .....  ",
"                ....    .....        ....  .....         .....  ",
"                ....    .....        ....  .....         .....  ",
"                ....    .....        ....  .....         .....  ",
"                ....    .....        ....  .....         .....  ",
"                ....    .....        ....  .....         ....   ",
"                ....    .....        ....  .....        .....   ",
"                ....    .....        ....  .....        .....   ",
"                ....    .....        ....  .....       ......   ",
"                ....     ......   .  ....  ..... ..   ......    ",
"                ....     ..........  ....  ..... ..........     ",
"                ....       ........  ....  ..... .........      ",
"                ....        ......   ....  .....  .......       ",
"                ....                       .....                ",
"                ....                       .....                ",
"                ....                       .....                ",
"                ....                       .....                ",
"          ................                 .....                ",
"          ................                 .....                ",
"          ................                 .....                ",
"                                           .....                ",
"                                                                ",
"                                                                ",
"                                                                ",
"                                                                ",
"                                                                ",
"                                                                ",
"                                                                ",
"                                                                ",
"                                                                ",
"                                                                ",
"                                                                ",
"                                                                ",
"                                                                ",
"                                                                ",
"                                                                ",
"                                                                ",
"                                                                ",
"                                                                "
};
