/* XPM */
static const char *monket1[] = {
/* columns rows colors chars-per-pixel */
"43 64 2 1 ",
"  c white",
". c black",
/* pixels */
"                                           ",
"                                           ",
"                                           ",
"                                           ",
"                                           ",
"                                           ",
"                                           ",
"                                           ",
"                                           ",
"                                           ",
"                                           ",
"                                           ",
"                                           ",
"                                           ",
"                                           ",
"                                           ",
"                                           ",
"                                           ",
"                                           ",
"                                           ",
"                                           ",
"                                           ",
"                     ....  ..              ",
"                    ..........             ",
"            ...     .........              ",
"            ...     ...  ....              ",
"            ...     ...  ...               ",
"             ..     ... ..                 ",
"                    ....... ..             ",
"                     .  ......             ",
"                     ..      .             ",
"                     .........             ",
"                      .......              ",
"                                ........   ",
"                                ........   ",
"                      ....     .........   ",
"                     .....     ........    ",
"                     .....    .........    ",
"                     .....    ........     ",
"                     ..       ........     ",
"                     ..                    ",
"               ....   ..                   ",
"              .....                        ",
"               .                           ",
"                                           ",
"                                           ",
"                 ...     .                 ",
"                 ....   ....               ",
"                                           ",
"                                           ",
"                                           ",
"                                           ",
"                                           ",
"                                           ",
"                                           ",
"                                           ",
"                                           ",
"                                           ",
"                                           ",
"                                           ",
"                                           ",
"                                           ",
"                                           ",
"                                           "
};
