/* XPM */
static const char *mono4iz[] = {
/* columns rows colors chars-per-pixel */
"64 64 16 1 ",
"  c #0C0909",
". c #272021",
"X c #5E2913",
"o c #1F364F",
"O c #4B5055",
"+ c #A2321C",
"@ c #8E5022",
"# c #A37842",
"$ c #DAA25A",
"% c #356699",
"& c #6D7D91",
"* c #5098e5ff",
"= c #5098e5ff",
"- c #5098e5ff",
"; c #7E8086",
": c #BEB8B0",
/* pixels */
"================================================================",
"================================================================",
"================================================================",
"================================================================",
"================================================================",
"================================================================",
"================================================================",
"================================================================",
"================================================================",
"================================================================",
"================================================================",
"================================================================",
"================================================================",
"================================================================",
"================================================================",
"========================ooooooooooo%============================",
"=====================%%%XXXXXXXX.  o%%%=========================",
"====================*.  +++++++++XX.  .*-=======================",
"===================*.X++++++++++++XXXX. %=======================",
"==================%oX++...X++++++++XXXX..o======================",
"==================o ++X    X++++++++XXXX o======================",
"==================o +       ++++++++XXXX o======================",
"==================o +  ...  ++++++++XXXX o======================",
"==================o + .XXX. X++++++X.... o-=====================",
"==================o                       .*====================",
"==================o XXXXXXX@@@@@@XXXXXXX   oooo*================",
"==================o.####@@#$$$$$$#@@@@@@X....  O%%-=============",
"==================o.$$$$@#$$$$$$$$@@@@@@#$$$@ +X  %=============",
"==================o.:::$$$$::::$$$@@@@@X@#$$@ ++X %=============",
"==================oo:::$$$$::::$$$@@@@XX@#$$@ XXX %=============",
"==================oo:o.$$$$..::$$$@@@@XX@#$$@     %=============",
"==================oo:o.$$$$. ::$$$@@@@XX#$$Xo*****-=============",
"=================%O#:O@$$$$@@::$$$@@@@XX@@@O%===================",
"================- @$$@@X#$$$$$$$$$@@@@XX. .*===------===========",
"================- @$$##@$$$$$$$$$@@@@XX %--====%     %==========",
"================- @$$$$$$$$$@@$$$@@@@.  %====-o.XXXXXo%=========",
"================-oO#########@@$$#@XXX  o*===-%.X@XXX@X.%-=======",
"======-=----=-----o         #$$@@@.   o--===% X@XXXX@@X %=======",
"=====%............   @######$$@XXXXXXXX..O==% XXX   XXX %=======",
"=====o OOOOOOOOOOO..oO@@######XXXXXXXXXX..%-% XX.o. XXX %=======",
"=====o.;;;;;;;;;;;oo=o  XX@@@@@@@@@@@@@@X. *%.X..-o XXX %=======",
"=====% ;&&&&&;;;&;oo==% X@$$$$$@@@@@@@@@@X *=*. .-o XXX %=======",
"=====* O;&&&&&;;;;Ooo-% X@$$$$$$#@XX.X@@@X.o%=%%%o.XXX.%-=======",
"=====-.O&&&&::;;;;;O %% X@$$$$###XX. X@@@XX o==-%.X@X.o=========",
"======o.&&&&::;&&&&O %% X@$$$#.      X@@@XX o==o X@XX o=========",
"======% ;&&&;;;&&&;O .   X$X.X###XXXXX@@@XX  oo.X@XX O*=========",
"======% O;;;;&&;&&;O  X@@@#..@$$$@@@@@@@XXX  ..X@XX.o*==========",
"======- O;;;;;;;&&;O  #$$#X @$$$#@XX@@@@XXX .XXXXX.o-===========",
"=======oo;&&&&&&&&;;  ....   X$#@XXXXXXXX. ..     o-============",
"=======-%.OOOOOOOOOO .OOooOO. @X.........     o%%%*=============",
"========*ooooooooooo .oooooo.              ..o-=================",
"=========-.                   XX@@@@XXXXX. *====---=============",
"==========--o  o****% .XXX. XX@@@@XXXXXX o*====%..o-============",
"============% Xo%==-%O##@X.@#####@XX....o%==*%ooX. -============",
"============%X+X.**% ###@X ######XX.    %***o  X+Xo-============",
"=============OX+X                           .+++Xo==============",
"=============-O.+XXXXXXXXXXXXXXXXXXXXXXXXXXX+++.O*==============",
"==============*oXXXXXXXXXXXXXXXXXXXXXXXXXXXXXXXo%===============",
"===============-.                             o-================",
"================%    o%%.o**-------%    %%% o--=================",
"================*    %o%oo=========-    %o%.o===================",
"================-%o  oooo%==========%o  oooo%===================",
"==================%ooooo*============%ooooo-====================",
"================================================================"
};
