/* XPM */
static const char *mono3der[] = {
/* columns rows colors chars-per-pixel */
"64 64 16 1 ",
"  c #0A0808",
". c #271C1B",
"X c #5E2B14",
"o c #203752",
"O c #65626A",
"+ c #404A59",
"@ c #9E311D",
"# c #82421B",
"$ c #975F30",
"% c #A2794B",
"& c #D9A05B",
"* c #5098e5ff",
"= c #5098e5ff",
"- c #5098e5ff",
"; c #498BD2",
": c #D3C7B8",
/* pixels */
"----------------------------------------------------------------",
"----------------------------------------------------------------",
"----------------------------------------------------------------",
"---------------------------=ooooooooo;--------------------------",
"------------------------=**o         ***;-----------------------",
"-----------------------;.               *-----------------------",
"----------------------*....XXXXX########.o;---------------------",
"--------------------;*o .XXX@@@@@@@@@@@@X.*=--------------------",
"--------------------= ...X@@@@@@@@@@@@@@@@ o--------------------",
"--------------------= ..XX@@@@@@@@@@X...X@ o--------------------",
"--------------------= ..@@@@@@@@@@@X    XX o--------------------",
"--------------------= ..@@@@@@@@@@.        o--------------------",
"--------------------= ..@@@@@@@@@@. ....   o--------------------",
"---------------;====*  .XXX#####XX. ....   o--------------------",
"---------------=                           o--------------------",
"------------*oooXXX  XXXXXXXX#$$$$XXXXX$$$ o--------------------",
"------------o  .@@#.X$######$&&&&&%$##$&&&.o--------------------",
"------------o ..X. %&&%####$&&&&&&&&#%&&&&.o--------------------",
"------------*+...  %&&%####$&&&:::&&%&&:::.o--------------------",
"-------------;o    %&&%###X$&&&:::&&&&&:::.o--------------------",
"--------------;;;o &&&%####$&&&:: %&&&&:O  o--------------------",
"--------;*+++*;--*++$%$####$&&&:: $&&&&:O #++;------------------",
"-------;*.   .=;--;o.XX####$&&&::.%&&&&:O.&$ =------------------",
"-------o.%&&&%.o---;* X#####$&&&&&&&&. .$&&$ =------------------",
"-----;*+$&&&&%X.***;;ooXX####%&&&$&&&$##%&&$ =------------------",
"-----* %&&&&$##X   =;;o X####%&&$ $&&&&&&&&$ =------------------",
"-----* %&&%$##XXXXX...   .X###$&&%X........+;;------------------",
"-----=oO%%$XXXXXXXX.......XXXX#%&&$XXXXX. o+************=-------",
"------;o X#X. .XXX#######XXXXX##$&&&&&&&X ;*            o-------",
"-------=*.  +*. XXXX######XXX####$$#....  .+OOOOOOOOOO+ o-------",
"------;=*  o*;o....XXXXX#####$$$$$#X .oooo oOOOOOOOOOOO o-------",
"------=   *----*      .XX####%&&&&$X *---;..OOOOOOOOOOO o-------",
"----;+oXXXooo*-;***  .XXX##$%&&&&&$X *--*oOOOOOO::OOOOo*=-------",
"---;=..##X.  o----;. XX####$&&&&&&#. +;=o OOOOOO::OOO+ ;--------",
"---* X##X .X o----;. X#####$&&&&%#XX..    OOOOOOOOOOO+ ;--------",
"---* XX..XXX o---*o..X#####$&&&&%..XX.. .OOOOOOOOOOOo+*;--------",
"---* XX .XXX.*---o .X###XXX$&&&&$ ..XX. OOOOOOOOOOOO *----------",
"---+ XX    .=;---o XX##X.    %&.    +++++O++++++++++ *----------",
"---*oXX.  o*;-;**. .X###X....## .+  ....oo.........oo*----------",
"----;. #X +;;;=.   .XXX######.  o;o                o;-----------",
"----;. #XX.........  XX######XX o-;;;;;;;;;;;;;;;;;;------------",
"----;*oXX#X....XX..oo.XXXXXX##X.o*;-----------------------------",
"------= .XXXXXXX.  ;=  XX..XX###X *-----------------------------",
"------;;+        +;-=      .XX##X *-----------------------------",
"--------*ooooooo o**+       XX##X o**=--------------------------",
"--------------;;o      XXX  .X##X    +;-------------------------",
"--------------*.##....XXXX   X#X$%%%&+.;------------------------",
"------------;=+.$$XXXXXX..o. X#$%&&&%X =------------------------",
"------------;.X%%$XXXXX. .;* X#&&&&%   =---=++*;----------------",
"-----------*o#$%#.      **-* $&&%XX+***;--*o   ;----------------",
"-----------o.$%$. .....o=--* #%%Oooo;-;;;;o.#. ;----------------",
"-----------o $#  .;;;;;;---*    o----=.   X@@+*;----------------",
"-----------o .. +*;--------;*****oooooXXXX@@.*------------------",
"-----------+...o;----------;====*    .@@@@@Xo;------------------",
"-----------;;;;;----------;o    .@@@@@#X   o;-------------------",
"-----------------=oo*-;ooooXXXXX#@@X..o**o *--------------------",
"-----------------*  o**....@@@#X.   . *==o =--------------------",
"-----------------* X. .@@@#X.      o;.***o *--------------------",
"-----------------;*..XXXX.    *=***=-=o..o*;--------------------",
"------------------;*o.. .***  =-------*oo*----------------------",
"--------------------;==oo=o=. =---------------------------------",
"-----------------------*o*o*o*;---------------------------------",
"------------------------*   =-----------------------------------",
"------------------------;**=;-----------------------------------"
};
